# xmcd CD database file
#
# Track frame offsets:
#	150
#	26886
#	49131
#	75687
#	109071
#	154108
#	183750
#	206435
#
# Disc length: 2872 seconds
#
# Revision: 0
# Processed by: cddbd v1.5.2PL0 Copyright (c) Steve Scherf et al.
# Submitted via: CDex 1.70beta2
#
DISCID=600b3608
DTITLE=Miroslav Vitous - Miroslav Vitous Group
DYEAR=1980
DGENRE=Jazz
TTITLE0=When Face Gets Pale
TTITLE1=Second Meeting
TTITLE2=Number Six
TTITLE3=Inner Peace
TTITLE4=Interplay
TTITLE5=Gears
TTITLE6=Sleeping Beauty
TTITLE7=Eagle
EXTD=YEAR: 1980
EXTT0=
EXTT1=
EXTT2=
EXTT3=
EXTT4=
EXTT5=
EXTT6=
EXTT7=
PLAYORDER=
